<svg width="230" height="90" viewBox="0 0 230 90" fill="none" xmlns="http://www.w3.org/2000/svg">
<path d="M116.231 0.306019C115 0.63002 114.294 1.08002 113.28 2.21402C111.831 3.79802 111.016 5.92202 111.016 8.10002C111.016 9.00002 111.776 13.104 111.994 13.482C112.048 13.572 111.613 13.932 111.016 14.292C108.571 15.786 106.724 17.982 105.909 20.304C105.546 21.366 105.492 21.852 105.492 24.3C105.492 26.712 105.546 27.27 105.909 28.44C106.941 31.734 108.607 34.056 110.617 35.046C111.523 35.496 111.849 35.55 113.37 35.55C114.946 35.55 115.199 35.496 116.268 34.974C116.92 34.668 117.88 34.002 118.423 33.516L119.419 32.652L120.27 33.678C121.157 34.74 122.172 35.334 123.367 35.55L124.055 35.676L126.627 33.03C128.057 31.572 129.235 30.204 129.271 29.988C129.307 29.736 129.072 29.376 128.601 28.908L127.858 28.188L127.224 28.494C125.884 29.124 125.142 28.782 124.417 27.144L124.037 26.298L124.472 25.614C124.707 25.236 125.377 23.994 125.939 22.86C127.152 20.466 128.184 19.008 129.054 18.504C129.633 18.162 129.669 18.09 129.669 17.118C129.669 16.56 129.579 16.002 129.452 15.876C129.307 15.732 128.365 15.66 126.373 15.66C123.693 15.66 123.512 15.678 123.331 16.02C122.968 16.686 123.222 17.748 123.838 18.342C124.49 18.936 124.544 19.314 124.128 20.718C123.838 21.708 123.005 23.4 122.805 23.4C122.751 23.4 121.918 21.402 120.994 18.936C120.053 16.488 119.183 14.238 119.057 13.932C118.821 13.374 118.821 13.374 119.854 12.654C121.882 11.232 123.331 8.80202 123.476 6.57002C123.675 3.51002 122.045 1.06202 119.31 0.288021C118.205 -0.0359802 117.59 -0.0359802 116.231 0.306019ZM119.057 3.78002C119.854 4.73402 120.125 6.48002 119.672 7.93802C119.437 8.73002 118.368 10.08 117.988 10.08C117.59 10.08 116.775 7.32602 116.684 5.67002C116.594 4.39202 116.63 4.17602 116.992 3.72602C117.554 3.02402 118.423 3.04202 119.057 3.78002ZM113.624 18.846C114.402 21.474 116.014 25.92 116.92 27.954C117.753 29.862 117.753 29.934 116.865 30.168C115.453 30.546 114.185 29.034 112.827 25.362C111.849 22.734 111.432 20.628 111.541 18.738C111.559 18.342 112.628 17.1 112.954 17.1C113.044 17.1 113.352 17.892 113.624 18.846Z" fill="#5F030E"/>
<path d="M167.067 1.06205C164.622 1.51205 163.228 1.96205 162.612 2.53805C161.96 3.15005 161.924 3.92405 162.503 4.44605C164.495 6.28205 174.981 5.07605 176.122 2.86205C176.285 2.57405 176.412 2.32205 176.43 2.30405C176.539 2.10605 175.923 1.38605 175.434 1.13405C174.546 0.666049 169.512 0.612049 167.067 1.06205Z" fill="#5F030E"/>
<path d="M21.0441 2.28594C21.0984 3.34794 21.1528 3.50994 21.4606 3.56394C22.2031 3.70794 22.2756 3.92394 22.2756 6.04794V8.09994L21.2071 7.27194C19.4866 5.93994 17.8567 5.68794 16.1724 6.49794C14.0535 7.52394 12.8039 10.3319 12.3331 15.1919C12.0795 17.7659 12.0795 25.1999 12.3331 27.2699C12.7134 30.3479 13.6189 33.0119 14.7417 34.3439C16.4441 36.3239 19.0701 36.4859 21.2795 34.7399L22.185 34.0199L22.2756 34.7939L22.3661 35.5499H26.2598H30.1535L30.2079 34.4159C30.2622 33.3899 30.226 33.2819 29.8457 33.1379C29.6102 33.0479 29.3205 32.8679 29.1937 32.7239C29.0307 32.5259 28.9764 28.7819 28.9764 17.1719C28.9764 8.76594 28.922 1.70994 28.8677 1.47594C28.7591 1.07994 28.7409 1.07994 24.8654 1.07994H20.9898L21.0441 2.28594ZM21.8228 10.4759L22.2756 10.6739V20.7359V30.8159L21.7323 31.3379C21.0622 32.0219 20.3921 31.9859 19.8488 31.2659C19.4685 30.7619 19.4685 30.5639 19.4142 21.9059C19.378 17.0279 19.4142 12.6359 19.4685 12.1139C19.6677 10.4939 20.537 9.88194 21.8228 10.4759Z" fill="#5F030E"/>
<path d="M61.3937 6.26416C60.5063 6.71416 60.1079 7.34416 59.3654 9.59416L58.6953 11.6102V9.16216C58.6772 7.52416 58.6047 6.66016 58.4598 6.51616C58.2244 6.28216 52.6465 6.19216 52.085 6.40816C51.8677 6.49816 51.7953 6.76816 51.7953 7.50616C51.7953 8.35216 51.8677 8.58616 52.3386 9.12616L52.8819 9.73816V20.9882V32.2382L52.4291 32.6522C51.8858 33.1562 51.6142 34.6142 51.9583 35.2622C52.1756 35.6402 52.2118 35.6402 56.4677 35.6042L60.7598 35.5502L60.8142 34.4162C60.8685 33.3182 60.8504 33.2822 60.1803 32.6702L59.4921 32.0402L59.4378 23.9042C59.3835 15.2822 59.4559 13.0142 59.8543 12.4742C60.1803 12.0602 60.615 12.2942 61.0858 13.1582C61.5386 13.9862 61.8827 14.2202 62.6433 14.2202C63.9291 14.2022 64.5087 13.2302 64.6173 10.9262C64.7984 7.36216 63.3496 5.27416 61.3937 6.26416Z" fill="#5F030E"/>
<path d="M72.4409 6.13816C70.9378 6.39016 68.9819 7.41616 68.0402 8.46016C67.0622 9.54016 66.6457 10.6562 66.6457 12.1862C66.6457 14.4722 67.3882 15.2102 69.6158 15.0842C71.0646 15.0122 72.1331 14.5802 72.6945 13.8242C72.948 13.4642 73.0748 12.9062 73.1654 11.7182C73.3102 9.81016 73.6 9.25216 74.5598 9.07216C75.1394 8.96416 75.2843 9.01816 75.6465 9.43216C76.0449 9.90016 76.063 10.0622 76.063 12.4022V14.9042L73.9441 15.8402C70.3583 17.4422 69.0543 18.1622 68.0221 19.1702C66.8811 20.2862 66.4284 21.3482 66.1024 23.5622C65.8126 25.5242 65.9575 30.1322 66.3559 31.5902C67.1165 34.3442 68.4929 35.7122 70.7205 35.9462C72.2236 36.1082 73.3284 35.6402 74.8134 34.2362C75.5016 33.6062 76.0811 33.1022 76.1173 33.1382C76.1354 33.1742 76.3709 33.6062 76.6244 34.1102C77.4394 35.6582 79.3953 36.3062 81.7677 35.8202C83.1441 35.5322 83.6693 35.0282 83.6693 34.0022C83.6693 33.4262 83.5606 33.1022 83.2165 32.7602L82.7457 32.2742L82.7638 22.2122C82.7638 10.9442 82.7457 10.7822 81.5323 9.00016C80.2827 7.16416 78.2 6.21016 75.1213 6.06616C74.1976 6.01216 72.9843 6.04816 72.4409 6.13816ZM76.0268 24.0122C75.9724 30.0062 75.9543 30.2402 75.5921 30.7262C75.0669 31.4282 74.1614 31.4282 73.6362 30.7262C73.274 30.2582 73.2559 29.9522 73.2016 26.3702C73.1291 22.2302 73.3284 20.1782 73.8717 19.4402C74.2339 18.9362 75.6283 17.8202 75.9 17.8202C76.0087 17.8202 76.063 20.1422 76.0268 24.0122Z" fill="#5F030E"/>
<path d="M97.0709 6.19214C95.8937 6.44414 94.9157 7.03814 93.811 8.17214L92.9961 9.01814L92.9055 7.70414L92.815 6.39014H89.1023H85.3897L85.3354 7.45214C85.2811 8.44214 85.3173 8.55014 85.7882 8.92814L86.2953 9.32414V20.7541V32.2021L85.7882 32.7241C85.3173 33.2101 85.2811 33.3541 85.3354 34.3981L85.3897 35.5501L89.4464 35.6041C92.2716 35.6401 93.5756 35.5861 93.7386 35.4421C93.9016 35.3161 93.9921 34.8661 93.9921 34.2541C93.9921 33.4081 93.9197 33.1741 93.4488 32.6341L92.9055 32.0221V21.8881V11.7361L93.4669 11.2681C94.0102 10.8001 94.9339 10.6561 95.3685 10.9441C95.948 11.3221 95.9843 11.8441 95.9843 22.7701C95.9843 36.7921 95.6039 35.6401 100.168 35.6401C103.102 35.6401 103.228 35.6221 103.428 35.2441C103.735 34.6681 103.5 33.1561 103.011 32.6341L102.595 32.1841L102.504 20.6461L102.413 9.09014L101.852 8.10014C100.874 6.39014 99.2079 5.72414 97.0709 6.19214Z" fill="#5F030E"/>
<path d="M32.0913 6.44403C31.4575 6.85803 31.6205 9.03603 32.3268 9.41403L32.7614 9.63003L32.8338 20.7C32.8882 32.868 32.9244 33.192 34.011 34.542C35.659 36.558 38.3756 36.378 41.2551 34.038L42.3779 33.12V34.074C42.3779 35.694 42.2874 35.658 46.4527 35.604L50.0748 35.55L50.1291 34.416C50.1835 33.39 50.1472 33.264 49.6764 32.832L49.1693 32.364L49.0787 19.386L48.9882 6.39003H45.185H41.3819L41.3275 7.56003C41.2732 8.67603 41.3094 8.76603 41.8346 9.27003L42.3779 9.79203V20.106V30.42L41.7984 30.78C41.0016 31.266 40.5307 31.23 40.0055 30.672L39.5709 30.204L39.4803 18.306C39.426 11.754 39.3535 6.37203 39.3354 6.33603C39.2268 6.22803 32.2905 6.31803 32.0913 6.44403Z" fill="#5F030E"/>
<path d="M143.705 6.49809C139.902 6.98409 136.769 8.56809 134.704 11.0161C132.893 13.1941 132.277 14.2741 131.535 16.6861C131.1 18.1441 131.046 18.5401 131.046 21.4201C131.028 25.0561 131.227 26.1181 132.422 28.6201C133.02 29.8621 133.454 30.4201 134.722 31.6981C136.08 33.0481 136.569 33.3901 138.199 34.1821C141.061 35.5681 142.672 35.8921 146.421 35.8921C149.862 35.8741 151.402 35.5861 153.539 34.5421C155.114 33.7681 156.871 32.1121 157.559 30.7081C158.537 28.7101 158.465 26.6221 157.396 26.3161C156.78 26.1541 153.629 26.1541 152.995 26.3161C152.416 26.4961 152.126 27.2161 152.126 28.5841C152.126 31.2121 150.569 32.9221 148.178 32.9401C147.019 32.9401 146.168 32.6161 145.643 31.9501L145.244 31.4461V20.7901V10.1341L145.697 9.72009C146.331 9.12609 148.124 9.01809 149.047 9.48609C149.826 9.88209 149.898 10.2781 149.5 11.9881C149.102 13.6441 149.301 14.4541 150.315 15.3721C151.275 16.2361 152.687 16.6321 154.39 16.5241C156.78 16.3621 158.247 15.2461 158.356 13.4461C158.573 10.4041 155.295 7.65009 150.315 6.66009C148.939 6.40809 145.262 6.31809 143.705 6.49809Z" fill="#5F030E"/>
<path d="M195.319 6.40799C193.327 6.56999 190.429 7.05599 188.962 7.46999C184.851 8.65799 182.732 10.53 182.95 12.798C183.058 13.86 183.547 14.472 184.706 14.994C187.024 16.02 194.232 15.174 195.156 13.77C195.319 13.518 195.518 12.798 195.591 12.15C195.862 10.008 196.532 9.44999 198.887 9.44999C200.354 9.44999 200.516 9.48599 200.933 9.91799C201.386 10.35 201.404 10.458 201.404 12.672C201.422 13.932 201.386 15.012 201.331 15.066C201.187 15.21 198.85 15.768 194.776 16.668C188.636 18 184.742 19.44 183.42 20.826C181.157 23.202 180.867 29.268 182.877 32.4C184.398 34.794 188.147 36.162 192.512 35.946C194.993 35.82 196.858 35.316 199.357 34.11L201.422 33.12L202.165 33.894C203.704 35.46 205.388 35.91 209.807 35.91C214.316 35.91 215.82 35.478 216.146 34.164C216.291 33.624 215.856 33.084 214.824 32.544L214.244 32.238V22.194C214.244 10.746 214.316 11.394 212.668 9.86399C210.894 8.24399 208.286 7.25399 204.374 6.74999C202.201 6.46199 197.021 6.28199 195.319 6.40799ZM201.422 22.896C201.494 29.196 201.422 29.934 200.698 30.654C200.245 31.104 199.955 31.212 199.14 31.284C197.094 31.446 196.17 30.96 195.754 29.502C195.482 28.494 195.5 23.382 195.79 21.924C196.17 20.016 196.949 19.314 199.575 18.45C200.317 18.216 201.024 18.018 201.15 18C201.313 18 201.386 19.188 201.422 22.896Z" fill="#5F030E"/>
<path d="M161.58 6.84004C161.199 7.00204 161.163 7.11004 161.217 8.13604L161.272 9.25204L162.087 9.48604C163.644 9.91804 163.535 9.07204 163.535 21.348V32.202L163.137 32.472C162.92 32.634 162.594 32.76 162.413 32.76C162.231 32.76 161.924 32.922 161.724 33.12C161.254 33.588 161.199 35.352 161.652 35.532C162.087 35.694 177.897 35.658 178.169 35.478C178.531 35.262 178.621 33.858 178.295 33.372C178.15 33.156 177.698 32.868 177.263 32.724L176.484 32.454L176.448 19.872C176.394 7.29004 176.394 7.29004 176.013 6.96604C175.669 6.67804 175.054 6.66004 168.805 6.67804C165.057 6.67804 161.815 6.75004 161.58 6.84004Z" fill="#5F030E"/>
<path d="M8.62047 33.7681C7.73307 35.3881 7.04488 36.4501 6.80945 36.5401C6.59212 36.6301 5.25197 36.9181 3.80315 37.1881C2.35433 37.4401 1.12283 37.7101 1.05039 37.7821C0.97795 37.8361 1.84724 38.8981 2.98819 40.1041C4.58189 41.8141 5.07086 42.4441 5.07086 42.8221C5.07086 43.2901 4.61811 47.0161 4.43701 48.1861L4.32834 48.7621L7.2622 47.3941L10.1961 46.0441L12.985 47.3401C14.5063 48.0601 15.8102 48.6001 15.8646 48.5461C15.9189 48.4921 15.9008 47.8621 15.7921 47.1241C15.7016 46.4041 15.6291 45.7921 15.6472 45.7741C15.6654 45.7561 16.6614 45.9361 17.8567 46.1701C23.5252 47.3041 28.7047 49.8781 35.0433 54.7021C40.8386 59.0761 42.8126 60.5341 44.3882 61.5601C46.4527 62.8921 50.6543 64.9801 52.5378 65.5921C56.7031 66.9241 61.7197 67.4281 66.2653 66.9601C67.2071 66.8521 68.0039 66.8161 68.0401 66.8521C68.1488 66.9601 65.4504 67.8061 64.2913 68.0221C63.0417 68.2741 60.7417 68.3101 58.4598 68.1301C56.7213 68.0041 56.7031 68.0041 56.2323 68.4721C55.852 68.8501 55.7614 69.0841 55.8157 69.6961C55.8882 70.6681 56.3228 70.9741 58.4961 71.5501C64.0197 73.0081 68.9638 72.2701 73.4732 69.3001C75.0488 68.2741 77.2039 66.3481 78.4354 64.8721C78.7795 64.4581 79.2142 64.0801 79.4134 64.0261C79.7575 63.9181 79.7756 64.0081 79.8299 65.4841C80.0653 72.2161 84.3756 79.2721 91.4567 84.4921C94.3 86.6161 97.9764 88.5601 99.0992 88.5601C99.8779 88.5601 100.693 87.6961 100.693 86.8681C100.693 86.1841 100.765 86.2381 98.0669 84.2761C91.9819 79.8301 87.6354 73.7461 86.2772 67.7701C85.8425 65.8801 85.7882 61.8121 86.2047 61.5601C86.6394 61.2901 86.6575 61.3261 86.8748 62.4601C87.1283 63.8281 87.9976 65.6641 88.9756 66.9601C89.374 67.5001 90.859 69.1201 92.2716 70.5601C96.1472 74.5201 97.0165 76.1401 97.1976 79.5601C97.3063 81.8281 97.3244 81.9361 97.9583 82.3141C98.8275 82.8181 99.896 82.6561 100.457 81.9181C100.928 81.2881 101.472 78.4261 101.49 76.4101C101.508 74.1961 101.291 73.2061 100.439 71.5501C100.131 70.9561 99.8598 70.4341 99.8417 70.3801C99.8055 70.3261 100.783 70.2721 102.015 70.2721C107.774 70.2001 112.392 67.6801 114.511 63.3961C114.819 62.7841 115.127 62.2801 115.199 62.2801C115.272 62.2801 115.38 62.4961 115.453 62.7661C115.797 64.1881 118.006 66.7261 120.053 68.0581C122.371 69.5881 126.591 70.5961 129.361 70.2721C129.923 70.2181 130.394 70.2181 130.394 70.2721C130.394 70.3261 130.158 70.8481 129.85 71.4061C128.51 74.0161 128.383 77.0941 129.47 81.1261C129.85 82.5121 131.118 83.0161 132.331 82.2601C133.02 81.8461 133.074 81.6661 133.165 79.2001C133.273 75.9421 134.088 74.5201 138.398 70.0921C141.984 66.4021 142.89 64.9441 143.524 61.8661C143.614 61.4341 143.668 61.3981 143.976 61.5601C144.302 61.7401 144.339 61.9381 144.339 63.7381C144.339 71.3521 139.594 79.0741 131.354 84.8881C129.47 86.2201 129.198 86.6881 129.796 87.7141C130.267 88.5061 131.172 88.7221 132.241 88.3261C133.454 87.8581 136.569 86.0761 138.417 84.7801C140.391 83.3941 144.248 79.6501 145.643 77.7421C148.576 73.7821 150.152 69.8041 150.424 65.6461C150.496 64.6921 150.623 63.9001 150.713 63.9001C150.804 63.9001 151.709 64.7641 152.724 65.8081C153.738 66.8701 155.024 68.0581 155.567 68.4721C160.457 72.1801 165.872 73.1341 172.265 71.4241C173.768 71.0281 174.329 70.6501 174.51 69.9301C174.655 69.3361 174.275 68.4541 173.786 68.2741C173.587 68.2021 171.649 68.1301 169.512 68.1301C165.709 68.1301 165.582 68.1121 164.079 67.6081C162.123 66.9601 161.851 66.7261 163.264 66.9061C165.002 67.1401 171.087 67.0681 172.591 66.7981C176.267 66.1681 178.748 65.3581 181.809 63.8461C185.25 62.1001 187.079 60.8761 193.508 55.9801C201.766 49.6801 206.891 47.0881 213.23 45.9901L213.918 45.8821L213.791 47.1061C213.737 47.7721 213.628 48.5101 213.574 48.7261C213.502 49.0861 213.791 48.9961 216.417 47.7721L219.369 46.4041L222.158 47.7001C223.68 48.4201 224.983 48.9601 225.038 48.9061C225.092 48.8521 224.965 47.4661 224.766 45.8101L224.368 42.8041L225.998 41.0761C226.885 40.1041 227.827 39.1321 228.08 38.8981C228.334 38.6461 228.551 38.3581 228.551 38.2501C228.551 38.1421 227.628 37.8901 226.414 37.6561C225.255 37.4581 223.879 37.1881 223.354 37.0801L222.412 36.8821L220.945 34.1821C220.13 32.7061 219.405 31.5001 219.351 31.5001C219.279 31.5001 218.572 32.6881 217.794 34.1281C216.906 35.7481 216.218 36.8101 215.983 36.9001C215.765 36.9901 214.697 37.2241 213.592 37.4401C211.582 37.8001 211.491 37.8001 115.688 37.8001H19.7945L16.5528 37.1701C14.7598 36.8281 13.2929 36.5401 13.2929 36.5401C13.2748 36.5401 12.5866 35.3161 11.7716 33.8401C10.9567 32.3461 10.2323 31.1401 10.1779 31.1401C10.1055 31.1401 9.39921 32.3281 8.62047 33.7681ZM11.3008 36.4141L12.2244 38.0701L14.1803 38.4121C15.2488 38.6101 16.1181 38.8261 16.1181 38.9161C16.1181 39.0061 15.5205 39.6901 14.7779 40.4641L13.4559 41.8501L13.7094 43.8121C13.8362 44.8921 13.9268 45.7921 13.8905 45.8281C13.8543 45.8641 12.985 45.5221 11.989 45.0541L10.1417 44.2081L8.38504 45.0541C7.42519 45.5221 6.59212 45.8641 6.5559 45.8101C6.50157 45.7561 6.57401 44.8741 6.70078 43.8301L6.91811 41.9401L6.1937 41.0941C5.79527 40.6081 5.17952 39.9601 4.81732 39.6181C4.47323 39.2761 4.21968 38.9521 4.2559 38.8801C4.29212 38.8081 5.19763 38.6101 6.24803 38.4121L8.16771 38.0701L9.00078 36.5401C9.92441 34.8301 10.1417 34.5061 10.2866 34.6501C10.3409 34.7041 10.7937 35.4961 11.3008 36.4141ZM220.474 36.7741L221.398 38.4301L223.354 38.7721C224.422 38.9701 225.291 39.1861 225.291 39.2761C225.291 39.3661 224.694 40.0501 223.951 40.8241L222.629 42.2101L222.883 44.1721C223.009 45.2521 223.1 46.1521 223.064 46.1881C223.028 46.2241 222.158 45.8821 221.162 45.4141L219.315 44.5681L217.558 45.4141C216.598 45.8821 215.765 46.2241 215.729 46.1701C215.675 46.1161 215.747 45.2341 215.874 44.1901L216.091 42.3001L215.367 41.4541C214.968 40.9681 214.353 40.3201 213.991 39.9781C213.646 39.6361 213.393 39.3121 213.429 39.2401C213.465 39.1681 214.371 38.9701 215.421 38.7721L217.341 38.4301L218.174 36.9001C219.098 35.1901 219.315 34.8661 219.46 35.0101C219.514 35.0641 219.967 35.8561 220.474 36.7741ZM212.343 40.6801L213.592 41.9401H114.656H15.7197L16.8425 40.6801L17.9653 39.4201H114.529H211.093L212.343 40.6801ZM94.7165 43.9561C93.974 44.1541 92.4709 44.6041 91.3661 44.9641C90.2795 45.3241 89.3016 45.6301 89.1929 45.6481C88.4685 45.7921 85.0819 47.5921 83.3795 48.7441C82.0031 49.6801 79.0149 52.5781 78.2362 53.7301C77.8921 54.2161 77.5661 54.6661 77.5118 54.7201C77.4394 54.7741 76.9323 55.5121 76.3709 56.3581L75.3567 57.9241L73.4913 58.1581C70.6661 58.5361 64.4181 58.4821 62.4984 58.0681C59.3291 57.3841 56.8842 56.1961 54.6929 54.2701C53.8417 53.5321 52.8819 52.7401 52.574 52.5421C52.248 52.3261 51.9764 52.1101 51.9764 52.0381C51.9764 51.6241 53.2984 50.0401 54.059 49.5541C55.9063 48.3481 57.7354 48.3661 60.3071 49.6261C61.3575 50.1481 62.0457 50.6701 63.3677 52.0021C65.0701 53.7121 65.0701 53.7121 65.9756 53.7121C66.7543 53.7121 66.9354 53.6401 67.3882 53.1361C68.022 52.4341 68.0401 51.9841 67.515 50.9941C66.5008 49.1401 64.5992 47.1061 62.7701 45.9361C58.9669 43.5061 53.5339 43.5241 49.7126 45.9901C48.2276 46.9441 46.7063 48.7441 46.2716 50.0401C46.1087 50.5441 45.9094 50.9761 45.837 51.0301C45.7464 51.0661 45.7283 51.3001 45.7646 51.5521C45.8189 51.7861 45.7646 52.0381 45.6559 52.0921C45.4386 52.2361 45.3842 54.2161 45.6016 54.4321C45.674 54.5041 45.7283 54.7381 45.7283 54.9541C45.7464 55.1701 45.8008 55.4581 45.8913 55.5841C46.3079 56.2681 45.4205 55.8721 44.1709 54.8101C43.8087 54.5221 42.9756 53.8561 42.3055 53.3701C41.6535 52.8661 40.585 52.0561 39.9512 51.5701C39.3173 51.0661 38.3937 50.4001 37.9047 50.0761C37.4339 49.7341 36.5465 49.1221 35.9488 48.7081C33.1236 46.7461 30.1354 45.2701 26.622 44.0821L25.0827 43.5781H60.5787L96.0748 43.5961L94.7165 43.9561ZM122.697 43.9741C121.628 44.5681 121.103 45.4321 121.212 46.4401C121.248 46.8901 121.357 47.3941 121.429 47.5561C121.52 47.7901 121.447 47.9161 121.23 48.0061C120.451 48.2941 118.839 49.4461 117.789 50.4721C116.648 51.5881 115.362 53.4061 115.362 53.9101C115.362 54.3601 115.054 54.2161 114.855 53.6761C114.33 52.1821 111.957 49.7161 109.748 48.3841C108.788 47.7901 108.661 47.6641 108.843 47.3581C109.078 46.8901 109.078 45.9181 108.824 45.1981C108.68 44.8021 108.354 44.4601 107.683 44.1001L106.76 43.5601H115.091H123.421L122.697 43.9741ZM203.378 44.1721C200.734 45.1081 199.937 45.4321 198.76 46.0801C198.162 46.4041 197.438 46.7821 197.13 46.9441C196.84 47.0881 196.206 47.4841 195.717 47.8081C195.246 48.1501 194.83 48.4201 194.776 48.4201C194.721 48.4201 194.232 48.7441 193.689 49.1401C193.146 49.5361 192.657 49.8601 192.602 49.8601C192.53 49.8601 192.059 50.2021 191.516 50.6161C190.991 51.0481 189.994 51.7861 189.343 52.2901C188.672 52.7761 187.767 53.4781 187.332 53.8201C185.195 55.5301 184.525 56.0161 184.435 55.9441C184.398 55.8901 184.435 55.4941 184.525 55.0621C184.942 53.3161 184.598 50.9221 183.692 49.2841C182.986 47.9881 181.175 46.2781 179.708 45.5041C175.126 43.0561 169.24 43.9201 165.473 47.5741C163.735 49.2661 162.431 51.1741 162.376 52.1101C162.322 53.0641 163.807 54.0361 164.857 53.7301C165.075 53.6581 165.872 52.9921 166.614 52.2361C168.878 49.9501 170.617 48.9601 172.79 48.6901C174.456 48.4921 175.687 48.9601 177.082 50.3641C177.716 50.9941 178.187 51.5521 178.132 51.6061C178.078 51.6781 178.114 51.8221 178.223 51.9481C178.386 52.1461 178.331 52.2361 178.005 52.3621C177.77 52.4521 177.046 52.9921 176.394 53.5681C174.546 55.2241 173.731 55.8181 172.21 56.5561C170.417 57.4201 168.244 58.0501 166.017 58.3201C163.952 58.5901 158.899 58.4821 156.4 58.1221C155.006 57.9241 154.77 57.8341 154.517 57.4381C152.361 53.8561 150.731 51.9121 148.051 49.6981C145.009 47.1781 141.713 45.6481 136.008 44.1001L134.106 43.5961L169.602 43.5781H205.098L203.378 44.1721ZM19.1968 44.2801C26.9661 44.9641 32.5622 47.5921 41.2913 54.6301C43.5913 56.5021 46.1992 58.4101 47.9921 59.5621C49.8394 60.7681 53.715 62.7661 53.8779 62.6041C53.9323 62.5501 53.4614 62.2081 52.8457 61.8301C48.1551 58.9501 46.1087 54.0001 48.1008 50.2921C49.0968 48.4201 51.0527 46.8001 53.1898 46.0621C54.6929 45.5401 57.0291 45.4141 58.4779 45.7921C60.6512 46.3501 61.8827 47.0881 63.748 48.9601C65.2874 50.5081 66.3016 51.8761 66.0842 52.1101C66.0299 52.1461 65.2693 51.4801 64.3638 50.5981C62.589 48.8701 61.6472 48.2401 59.8 47.5921C55.7071 46.1521 51.252 48.3301 50.0748 52.3441C49.1874 55.3501 51.0709 58.6261 54.8559 60.6241C58.0614 62.3161 61.4661 63.0361 66.374 63.0541C70.974 63.0721 74.5598 62.4781 79.4134 60.9481C80.5 60.6061 81.4236 60.3541 81.4598 60.3901C81.5142 60.4261 81.4779 60.7501 81.4236 61.1101C81.2606 61.9021 81.1882 61.9381 77.0228 63.1981C67.0803 66.1681 59.5827 66.4741 52.9181 64.1701C48.4811 62.6401 45.3842 60.7861 39.0276 55.8901C34.4094 52.3261 33.5583 51.7141 31.4937 50.3461C27.3102 47.5741 22.7827 45.6841 18.3457 44.8021C17.2228 44.5861 16.3535 44.3341 16.4079 44.2621C16.5346 44.0641 16.6433 44.0641 19.1968 44.2801ZM213.882 44.2801C213.882 44.3701 213.574 44.4961 213.212 44.5681C206.185 45.7741 200.933 48.3481 193.037 54.4861C187.115 59.0941 184.887 60.6421 182.171 62.0821C173.442 66.6901 164.64 66.8701 151.655 62.7121L149.047 61.8841L148.848 61.1641C148.757 60.7681 148.685 60.4081 148.721 60.3721C148.757 60.3541 149.554 60.5521 150.496 60.8581C155.531 62.4421 159.171 63.0541 163.717 63.0541C169.186 63.0541 173.224 62.1001 176.394 60.0301C177.897 59.0401 179.128 57.7801 179.78 56.5201C180.233 55.6561 180.287 55.3321 180.287 53.9101C180.287 51.9841 179.943 51.0661 178.639 49.5721C178.042 48.8701 177.444 48.4201 176.43 47.9341C175.09 47.2681 175.017 47.2501 173.043 47.2681C171.413 47.2681 170.87 47.3401 170.091 47.6641C168.516 48.3121 167.157 49.2841 165.654 50.7961C164.876 51.5881 164.206 52.2001 164.151 52.1641C163.97 51.9661 165.654 49.6801 166.777 48.6001C170.852 44.6581 176.792 44.5321 180.631 48.2941C183.257 50.8861 183.638 54.2521 181.664 57.6541C180.704 59.3101 178.585 61.2721 176.756 62.1901C176.412 62.3701 176.231 62.5501 176.339 62.5861C176.702 62.7121 180.287 60.8401 182.551 59.3641C183.692 58.6261 186.626 56.4661 189.053 54.5761C194.395 50.4181 196.387 49.0681 199.539 47.4841C202.201 46.1521 204.302 45.4141 207.199 44.8201C209.988 44.2621 213.882 43.9381 213.882 44.2801ZM100.421 44.6221C100.313 44.7121 99.7149 45.0001 99.063 45.2341C93.3401 47.3761 88.9212 50.9041 86.5307 55.2061C85.8244 56.4841 85.8063 56.5021 84.6472 56.8801C83.9953 57.0961 83.4157 57.2401 83.3795 57.1861C83.2165 57.0421 84.4842 54.7021 85.4441 53.3701C85.9512 52.6681 86.8205 51.6241 87.3638 51.0481C87.9252 50.4721 88.3598 49.9681 88.3236 49.9321C88.1425 49.7341 85.1 52.0021 83.7417 53.3521C82.0031 55.0621 81.3874 55.9261 79.5945 59.0221L78.5079 60.8941L77.3307 61.2361C75.3929 61.7761 75.3929 61.7941 76.3527 59.8861C77.6929 57.2221 79.7756 54.2701 81.5866 52.4701C85.1724 48.8881 90.0079 46.5841 96.9984 45.1081C100.113 44.4421 100.675 44.3701 100.421 44.6221ZM133.11 45.0901C138.743 46.2061 143.306 48.0781 146.675 50.6521C148.178 51.8041 150.369 54.1801 151.601 56.0161C152.579 57.4561 154.661 61.1461 154.661 61.4341C154.661 61.6501 154.118 61.5781 152.832 61.2001L151.619 60.8401L150.677 59.0941C148.613 55.2601 146.313 52.6321 143.343 50.7421C141.821 49.7701 141.694 49.8061 142.727 50.8681C144.212 52.4341 144.9 53.3701 145.95 55.1701C146.838 56.7181 147.037 57.2401 146.729 57.2401C146.657 57.2401 146.095 57.0781 145.498 56.8801C144.574 56.5741 144.357 56.4121 144.103 55.8721C142.002 51.4981 136.316 46.8901 130.81 45.1081C129.887 44.8021 129.434 44.3161 130.267 44.5141C130.484 44.5681 131.77 44.8381 133.11 45.0901ZM106.579 45.2521C107.629 45.7021 107.611 46.5841 106.524 47.7541C106.054 48.2401 105.963 48.2581 104.894 47.8621C104.532 47.7181 104.514 47.6641 104.713 47.3401C105.528 46.0081 101.508 46.1701 97.9039 47.6101C94.7165 48.8701 91.8732 51.1921 90.7323 53.4421C90.2795 54.3421 89.6638 56.3941 89.6457 57.0961C89.6457 57.1861 88.6677 57.6001 88.4504 57.6001C88.2874 57.6001 88.3961 56.5921 88.6496 55.6381C89.2653 53.2801 90.4968 51.3001 92.4709 49.5361C94.5354 47.6821 98.0126 45.9541 100.838 45.3601C102.794 44.9461 105.709 44.8921 106.579 45.2521ZM128.945 45.2881C134.65 46.3501 139.539 49.9681 141.187 54.2881C141.586 55.3681 141.984 57.6001 141.767 57.6001C141.713 57.6001 141.423 57.5101 141.133 57.4021C140.626 57.2401 140.572 57.1321 140.481 56.1961C140.318 54.6841 139.195 52.5601 137.783 51.1021C135.211 48.4921 130.575 46.4401 127.243 46.4401C125.667 46.4401 125.431 46.5661 125.576 47.2861C125.703 47.8081 125.667 47.8441 124.979 48.0061C124.309 48.1861 124.236 48.1681 123.62 47.5921C122.516 46.5661 122.57 45.7741 123.783 45.2521C124.526 44.9281 127.152 44.9461 128.945 45.2881ZM104.949 48.2761C106.995 48.7801 109.476 50.0401 110.78 51.1921C113.008 53.2081 114.113 55.5481 114.131 58.3201C114.185 63.1981 110.708 67.1941 105.257 68.5261C103.609 68.9221 99.8236 68.9221 97.9764 68.5081C97.2338 68.3461 96.3283 68.1481 95.9842 68.0941L95.3504 67.9861L95.9842 68.5081C97.7047 69.9481 98.8819 71.5501 99.4614 73.2601C99.7874 74.2141 99.8598 74.7901 99.8417 76.4101C99.8236 78.3541 99.2984 81.1981 99.0086 81.0001C98.9362 80.9461 98.8457 80.1361 98.8094 79.2001C98.6464 75.5641 97.7772 73.9981 93.3583 69.4801C90.5693 66.6361 90.0079 65.9521 89.4283 64.8001C88.6315 63.2161 88.1968 61.6501 88.1968 60.4441C88.1968 59.5261 88.2693 59.4541 89.4646 59.1661C89.8992 59.0581 89.9716 59.1481 90.5149 60.2821C93.3764 66.4021 103.826 69.0121 109.241 64.9621C111.722 63.1081 113.098 59.7961 112.628 56.8621C112.32 55.0081 111.523 53.5681 109.857 51.9121C108.154 50.2201 106.198 49.1401 103.554 48.4021C102.667 48.1681 101.961 47.9161 101.961 47.8261C101.961 47.6281 103.047 47.7901 104.949 48.2761ZM128.22 47.8441C128.22 47.9341 127.568 48.1681 126.754 48.3841C123.856 49.1581 121.302 50.6701 119.672 52.5781C118.115 54.4141 117.427 56.4121 117.59 58.6801C118.097 65.9161 126.5 69.1561 134.559 65.2321C136.75 64.1521 138.869 62.1541 139.793 60.2461C140.427 58.9321 140.372 58.9681 141.586 59.4181C141.93 59.5441 141.984 59.7061 141.984 60.4621C141.984 62.4241 141.278 64.4041 139.974 66.1681C139.557 66.7441 138.127 68.2561 136.805 69.5521C134.124 72.1981 133.346 73.1521 132.494 74.8621C131.698 76.4461 131.462 77.4721 131.462 79.4881C131.444 81.8821 131.191 81.7201 130.575 78.9481C130.285 77.6341 130.249 75.4381 130.502 74.1961C130.846 72.5581 131.752 71.0101 133.309 69.4261C134.07 68.6701 134.631 68.0401 134.577 68.0401C134.505 68.0401 133.726 68.2021 132.839 68.3821C129.416 69.1201 126.355 69.0301 123.675 68.1301C117.246 65.9521 114.239 59.3101 117.264 53.9101C118.894 50.9761 121.882 49.0141 126.12 48.0601C127.804 47.6821 128.22 47.6461 128.22 47.8441ZM100.24 48.6001C100.15 48.7441 97.3063 50.4001 97.1433 50.4001C97.1071 50.4001 97.0709 50.2741 97.0709 50.1301C97.0709 49.7881 97.7409 49.3561 99.1173 48.8521C100.457 48.3661 100.385 48.3841 100.24 48.6001ZM132.44 49.3921C132.911 49.5901 133.11 49.8061 133.11 50.0581C133.11 50.2561 133.056 50.4001 132.983 50.3641C132.223 50.0401 130.031 48.7081 130.031 48.5821C130.031 48.4381 130.683 48.6541 132.44 49.3921ZM104.532 49.1041C104.858 49.4281 99.6968 52.3081 95.2779 54.2521C94.2457 54.7021 93.3401 55.0261 93.2496 54.9721C93.159 54.9181 93.0866 54.7021 93.0866 54.4681C93.0866 54.1261 93.4126 53.9281 95.2961 53.0821C97.6142 52.0741 101.472 49.9681 102.413 49.1941C102.848 48.8521 103.102 48.7801 103.663 48.8521C104.043 48.8881 104.442 49.0141 104.532 49.1041ZM128.945 49.9321C129.977 50.5801 132.223 51.7681 133.961 52.5961C136.913 54.0001 137.094 54.1261 137.094 54.5941C137.094 55.2241 137.131 55.2241 133.925 53.7841C130.068 52.0561 125.685 49.5721 125.685 49.1581C125.685 48.9781 126.083 48.8341 126.699 48.7981C126.917 48.7981 127.931 49.3021 128.945 49.9321ZM95.4409 49.4101C95.4409 49.4641 94.9882 50.0401 94.4268 50.6881C92.8331 52.5781 92.326 54.2341 92.9961 55.5121C93.322 56.1241 93.322 56.1241 92.5976 56.2681C92.1268 56.3581 92.0362 56.3041 91.837 55.8361C91.4748 54.9901 91.5653 53.5321 92 52.6861C92.5795 51.6061 92.9779 51.1381 94.137 50.1841C95.0968 49.3921 95.4409 49.1941 95.4409 49.4101ZM136.117 50.2021C138.109 51.8041 138.924 53.5861 138.489 55.3681C138.272 56.2861 137.873 56.5561 137.294 56.1781C137.076 56.0341 137.058 55.9261 137.239 55.5301C137.583 54.7921 137.511 53.3161 137.076 52.4161C136.859 51.9841 136.243 51.1561 135.718 50.5801C135.175 50.0041 134.74 49.5001 134.74 49.4281C134.74 49.1761 135.066 49.3741 136.117 50.2021ZM106.361 51.3181C107.213 51.7501 108.734 52.9561 109.295 53.6221C109.929 54.3961 110.509 55.5121 110.762 56.4301C111.161 57.8701 111.106 57.9781 110.291 57.2221C108.1 55.1521 104.532 53.8381 101.073 53.8201L100.059 53.8021L100.874 53.4061C102.142 52.7761 104.659 51.2821 104.786 51.1021C104.949 50.8321 105.546 50.9221 106.361 51.3181ZM126.192 51.6061C126.754 51.9661 127.858 52.5961 128.637 53.0101L130.05 53.7661L128.347 53.8921C124.997 54.1261 122.099 55.2421 120.27 57.0061C119.727 57.5281 119.238 57.9601 119.202 57.9601C119.147 57.9601 119.165 57.6181 119.238 57.1861C119.437 55.9981 120.306 54.3241 121.266 53.3341C122.262 52.3081 124.291 50.9401 124.816 50.9401C124.997 50.9401 125.631 51.2461 126.192 51.6061ZM55.5441 57.1321C58.3693 58.7881 61.5024 59.6521 65.6315 59.9041C68.0583 60.0661 72.0968 59.9041 74.415 59.5801C75.2299 59.4541 75.9362 59.4001 75.9905 59.4541C76.0811 59.5261 75.4472 60.9481 75.2299 61.1821C74.9945 61.4341 71.8614 61.7581 68.7283 61.8481C65.8307 61.9381 64.6898 61.9021 63.0417 61.6681C57.3913 60.8401 53.4795 58.5541 51.6866 55.0441C50.9079 53.5321 51.1614 53.5141 52.6827 54.9541C53.4795 55.6921 54.7472 56.6821 55.5441 57.1321ZM178.531 55.0981C177.788 56.5741 175.796 58.5901 174.22 59.4541C171.232 61.0921 168.425 61.7401 163.626 61.8661C160.457 61.9561 157.034 61.7041 155.277 61.2721C154.933 61.1821 153.991 59.6341 154.191 59.4541C154.227 59.4181 155.35 59.5081 156.69 59.6701C159.443 60.0121 164.586 60.0481 166.614 59.7601C171.468 59.0761 175.217 57.3841 177.788 54.7381C178.368 54.1441 178.911 53.7301 178.983 53.8021C179.056 53.8741 178.857 54.4681 178.531 55.0981ZM91.2756 55.2421C91.2756 55.3321 91.3118 55.5301 91.3661 55.6561C91.4567 55.9081 90.8047 56.3401 90.3338 56.3401C90.0984 56.3401 90.3157 55.4041 90.6055 55.2241C90.9134 55.0261 91.2756 55.0441 91.2756 55.2421ZM139.883 55.6561C140.101 56.2861 139.938 56.4481 139.358 56.1961C138.743 55.9081 138.706 55.0261 139.304 55.1161C139.557 55.1521 139.775 55.3681 139.883 55.6561ZM104.858 55.9621C106.289 56.4121 107.937 57.3661 109.005 58.3741C109.802 59.1481 111.269 61.1821 111.124 61.3441C111.07 61.3801 110.69 61.2541 110.255 61.0561C108.535 60.2281 107.412 60.0841 102.323 60.0481C97.9401 60.0121 97.4149 59.9761 96.3464 59.6161C95.1693 59.2381 93.4488 58.2481 93.4488 57.9601C93.4488 57.8881 93.8291 57.7261 94.3181 57.6181C95.0244 57.4381 95.3142 57.4561 95.9661 57.6901C97.1795 58.1041 99.5701 58.3201 102.83 58.2841C105.673 58.2481 105.782 58.2301 105.402 57.9241C105.202 57.7621 104.587 57.4561 104.043 57.2581C100.258 55.8541 95.5677 56.4841 87.1827 59.5801C86.1142 59.9761 85.2086 60.2641 85.1543 60.2101C85.1 60.1741 85.1362 59.8681 85.2268 59.5441C85.3898 59.0041 85.4984 58.9501 88.559 57.9241C92.1268 56.7361 95.4228 55.8721 97.4331 55.6381C99.6244 55.3501 103.482 55.5301 104.858 55.9621ZM134.794 55.9621C137.511 56.5201 144.339 58.6621 144.809 59.1121C144.918 59.2201 145.081 59.5441 145.135 59.8321C145.244 60.2641 145.208 60.3361 144.936 60.2461C144.755 60.1921 143.071 59.6161 141.205 58.9681C134.65 56.6821 131.046 56.1061 127.822 56.7721C126.645 57.0241 124.598 57.8881 124.598 58.1401C124.598 58.2121 126.373 58.2661 128.546 58.2301C131.843 58.1941 132.694 58.1221 133.853 57.8161C134.976 57.5101 135.374 57.4741 135.99 57.6361C136.388 57.7441 136.732 57.8881 136.732 57.9781C136.732 58.2661 135.048 59.2201 133.835 59.6161C132.766 59.9761 132.241 60.0121 127.858 60.0481C122.787 60.0841 121.646 60.2281 120.071 61.0201C119.691 61.2181 119.31 61.3801 119.256 61.3801C118.694 61.3801 120.524 58.8961 121.918 57.7801C123.059 56.8621 124.671 56.0881 126.047 55.8181C126.591 55.7101 127.206 55.5841 127.405 55.5481C128.239 55.3501 133.11 55.6381 134.794 55.9621ZM87.9795 56.8081C87.9252 57.4381 87.8709 57.4741 86.748 57.8881C84.9189 58.5541 79.6488 60.1561 79.5583 60.0481C79.522 60.0121 79.6307 59.6701 79.8299 59.3101C80.1559 58.6441 80.1921 58.6261 83.8142 57.5281C85.8244 56.8981 87.5268 56.3401 87.5992 56.2861C87.8709 55.9981 88.0338 56.2141 87.9795 56.8081ZM145.932 57.3481C147.689 57.8881 149.337 58.4101 149.572 58.4821C149.989 58.6081 150.858 59.8141 150.659 60.0121C150.532 60.1561 144.302 58.2481 142.491 57.5101C142.057 57.3301 142.02 56.0701 142.437 56.2321C142.6 56.2861 144.157 56.7901 145.932 57.3481ZM84.6291 60.1561C83.7417 64.4221 84.5024 69.1921 86.8567 73.8181C89.1205 78.3361 93.0142 82.6561 97.759 85.9321C98.9 86.7241 99.2984 87.1201 98.9543 87.1201C98.6102 87.1201 95.2598 85.2661 93.7023 84.2221C91.9457 83.0341 89.2472 80.7841 88.1787 79.6141C83.6874 74.7181 81.4779 69.8221 81.4779 64.7101C81.4779 62.6401 81.8583 60.2101 82.2567 59.8321C82.4921 59.5981 84.0858 59.0761 84.5929 59.0581C84.8464 59.0401 84.8464 59.1661 84.6291 60.1561ZM146.965 59.3641C147.961 59.6701 148.069 59.7421 148.268 60.3541C148.957 62.4061 149.047 65.6101 148.486 68.1661C147.2 74.0341 142.636 80.1541 136.424 84.2941C134.559 85.5361 131.734 87.1201 131.354 87.1201C130.901 87.1201 131.136 86.8501 132.078 86.2201C134.631 84.5281 137.529 81.9541 139.612 79.4701C144.882 73.2241 146.874 66.4741 145.48 59.5441C145.353 58.9321 145.461 58.9321 146.965 59.3641ZM94.626 60.6961C96.2921 61.5241 98.1394 61.7581 102.866 61.7041C105.746 61.6861 107.357 61.7401 107.846 61.8841C108.245 61.9921 108.661 62.1001 108.752 62.1181C108.861 62.1181 109.042 62.2261 109.168 62.3161C109.531 62.6221 108.444 63.6301 106.941 64.3861C105.202 65.2681 103.265 65.5921 101.345 65.3221C98.3386 64.9261 95.5496 63.6301 93.7023 61.8301C91.9638 60.1201 91.6016 58.9141 93.0866 59.8501C93.4307 60.0661 94.137 60.4621 94.626 60.6961ZM138.091 59.5621C138.181 59.7241 137.511 60.8221 136.787 61.6681C136.189 62.3521 134.468 63.5221 133.092 64.1341C129.687 65.6821 126.011 65.8081 123.331 64.4401C122.968 64.2601 122.244 63.7741 121.719 63.3601C120.994 62.7841 120.813 62.5681 120.976 62.3701C121.393 61.8661 123.494 61.6501 127.55 61.7041C130.557 61.7401 131.843 61.6861 133.002 61.4701C134.541 61.2001 136.461 60.4261 137.276 59.7781C137.783 59.3641 137.928 59.3281 138.091 59.5621ZM77.3307 63.6481C77.3307 63.9361 75.1937 66.1501 73.9803 67.1221C70.5937 69.8221 67.3701 70.8841 63.0055 70.7041C60.9953 70.6141 58.2244 70.1101 57.4638 69.6961C57.3551 69.6241 58.9307 69.5701 60.9953 69.5701C65.1968 69.5701 65.885 69.4441 68.5835 68.2201C70.3583 67.4101 71.4811 66.6541 72.7669 65.4301C73.5819 64.6741 73.9803 64.4581 75.3024 64.0621C76.9866 63.5401 77.3307 63.4681 77.3307 63.6481ZM155.006 64.0801C156.146 64.4221 156.545 64.6381 157.595 65.5741C159.189 67.0141 161.254 68.2021 163.481 68.9581L165.256 69.5521L169.095 69.5701C171.214 69.5701 172.88 69.6241 172.808 69.6781C172.391 70.0561 169.385 70.5961 167.23 70.6861C162.177 70.8841 158.791 69.5521 154.897 65.8261C153.14 64.1341 152.615 63.3961 153.357 63.6121C153.52 63.6481 154.263 63.8641 155.006 64.0801Z" fill="#5F030E"/>
</svg>
