<svg width="54" height="44" viewBox="0 0 54 44" fill="none" xmlns="http://www.w3.org/2000/svg">
<path d="M45.3711 12.2875C44.9322 10.6321 43.6352 9.32855 41.9906 8.88537C39.0099 8.08154 27.0526 8.08154 27.0526 8.08154C27.0526 8.08154 15.0951 8.08154 12.1144 8.88537C10.4699 9.32855 9.17287 10.6321 8.73403 12.2875C7.93455 15.2899 7.93456 21.551 7.93456 21.551C7.93456 21.551 7.93455 27.8122 8.73403 30.8146C9.17287 32.4699 10.4699 33.7734 12.1144 34.2167C15.0951 35.0205 27.0526 35.0205 27.0526 35.0205C27.0526 35.0205 39.0099 35.0205 41.9906 34.2167C43.6352 33.7734 44.9322 32.4699 45.3711 30.8146C46.1705 27.8122 46.1705 21.551 46.1705 21.551C46.1705 21.551 46.1705 15.2899 45.3711 12.2875ZM23.142 27.2364V15.8656L33.1356 21.551L23.142 27.2364Z" fill="white"/>
</svg>
